<svg width="153" height="159" viewBox="0 0 153 159" fill="none" xmlns="http://www.w3.org/2000/svg">
<path d="M93.1923 0.299316H76.1067V157.914H93.1923V0.299316Z" fill="#292929"/>
<path d="M76.1069 0.299316H59.0212V130.364H76.1069V0.299316Z" fill="#9E9B9B"/>
<path d="M148.08 87.6496V70.564H93.1924V87.6496H148.08Z" fill="#292929"/>
<path d="M59.0212 17.3848H16.0935V0.299072H59.0212V17.3848Z" fill="#292929"/>
<path d="M76.1069 0.299316H59.0212V157.914H76.1069V0.299316Z" fill="#292929"/>
<path d="M93.1923 0.299316H76.1067V157.914H93.1923V0.299316Z" fill="#292929"/>
<path d="M152.352 0.299316H135.266V157.914H152.352V0.299316Z" fill="#292929"/>
<path d="M141.673 87.6496V70.564H86.7852V87.6496H141.673Z" fill="#292929"/>
<path d="M59.0211 17.3848H0.929932V0.299072H59.0211V17.3848Z" fill="#292929"/>
<path d="M59.0212 0.299316V157.915H93.1925V0.299316H59.0212Z" fill="#292929"/>
<path d="M59.021 140.829H25.2769V157.914H59.021V140.829Z" fill="#292929"/>
<path d="M0.92214 109.518L37.3362 145.932L25.2549 158.014L0.922119 133.681L0.92214 109.518Z" fill="#292929"/>
</svg>
