<svg width="156" height="156" viewBox="0 0 156 156" fill="none" xmlns="http://www.w3.org/2000/svg">
<path d="M91.9688 14.0557H78.0867V142.118H91.9688V14.0557Z" fill="#7980EB"/>
<path d="M78.0867 14.0557H64.2046V119.733H78.0867V14.0557Z" fill="#9E9B9B"/>
<path d="M150.447 14.0557H136.565V142.118H150.447V14.0557Z" fill="#7980EB"/>
<path d="M136.565 85.0278V71.1458H91.9687V85.0278H136.565Z" fill="#7980EB"/>
<path d="M64.2047 27.9377H29.3259V14.0557H64.2047V27.9377Z" fill="#7094ED"/>
<path d="M64.2047 142.118H29.3259V128.236H64.2047V142.118Z" fill="#7094ED"/>
<path d="M29.2758 142.166L17.0056 129.896L26.8217 120.08L39.0919 132.35L29.2758 142.166Z" fill="#7094ED"/>
<path d="M78.0867 14.0557H64.2046V142.118H78.0867V14.0557Z" fill="#7094ED"/>
<path d="M141.077 0H14.9232C6.68137 0 0 6.68137 0 14.9232V141.077C0 149.319 6.68137 156 14.9232 156H141.077C149.319 156 156 149.319 156 141.077V14.9232C156 6.68137 149.319 0 141.077 0Z" fill="#353535"/>
<path d="M91.9688 14.0559H78.0867V142.118H91.9688V14.0559Z" fill="#736EFE"/>
<path d="M140.035 14.0559H126.153V142.118H140.035V14.0559Z" fill="#736EFE"/>
<path d="M131.359 85.0281V71.146H86.7632V85.0281H131.359Z" fill="#736EFE"/>
<path d="M64.2047 27.9377H17.0056V14.0557H64.2047V27.9377Z" fill="#5EFCE8"/>
<path d="M64.2046 14.0556L64.2046 142.118H91.9688V14.0556H64.2046Z" fill="url(#paint0_linear)"/>
<path d="M64.2047 128.236H36.7876V142.118H64.2047V128.236Z" fill="#5EFCE8"/>
<path d="M16.999 102.796L46.5854 132.382L36.7694 142.198L16.999 122.428L16.999 102.796Z" fill="#5EFCE8"/>
<defs>
<linearGradient id="paint0_linear" x1="64.2046" y1="78.0868" x2="91.9688" y2="78.0868" gradientUnits="userSpaceOnUse">
<stop stop-color="#5EFCE8"/>
<stop offset="1" stop-color="#736EFE"/>
</linearGradient>
</defs>
</svg>
