<svg width="70" height="70" viewBox="0 0 70 70" fill="none" xmlns="http://www.w3.org/2000/svg">
<path fill-rule="evenodd" clip-rule="evenodd" d="M57.2727 63.1846L57.2727 6.81538C55.9266 5.85586 54.5095 4.98117 53.0303 4.19966L53.0303 65.8003C54.5095 65.0188 55.9266 64.1441 57.2727 63.1846ZM43.4848 69.3031L43.4849 0.696905C42.099 0.38939 40.6832 0.155558 39.2424 0L39.2424 70C40.6832 69.8444 42.099 69.6106 43.4848 69.3031ZM30.7576 70L30.7576 0C29.3168 0.155558 27.901 0.38939 26.5152 0.696905L26.5151 69.3031C27.901 69.6106 29.3168 69.8444 30.7576 70ZM16.9697 65.8003L16.9697 4.19966C15.4905 4.98117 14.0734 5.85587 12.7273 6.81538L12.7273 63.1846C14.0734 64.1441 15.4905 65.0188 16.9697 65.8003ZM4.24242 54.7296L4.24242 15.2704C2.49272 17.7221 1.05997 20.3941 2.27581e-06 23.2335L0 46.7665C1.05997 49.6059 2.49272 52.2779 4.24242 54.7296ZM70 23.2335C68.94 20.3941 67.5073 17.7221 65.7576 15.2704L65.7576 54.7296C67.5073 52.2779 68.94 49.6059 70 46.7665V23.2335Z" fill="white"/>
</svg>
